<?xml version="1.0" encoding="UTF-8" standalone="no"?>
<!DOCTYPE svg PUBLIC "-//W3C//DTD SVG 1.1//EN" "http://www.w3.org/Graphics/SVG/1.1/DTD/svg11.dtd">
<svg width="100%" height="100%" viewBox="0 0 84 1322" version="1.1" xmlns="http://www.w3.org/2000/svg" xmlns:xlink="http://www.w3.org/1999/xlink" xml:space="preserve" xmlns:serif="http://www.serif.com/" style="fill-rule:evenodd;clip-rule:evenodd;stroke-linecap:round;stroke-linejoin:round;stroke-miterlimit:1.5;">
    <g transform="matrix(1,0,0,1,-99.7533,-18.3732)">
        <g id="Frame11" transform="matrix(1,0,0,1,0,1200)">
            <g transform="matrix(0.979233,0,0,1.01164,55.1229,-7.75977)">
                <rect x="46.598" y="26.821" width="82.756" height="118.619" style="fill:rgb(238,0,30);stroke:black;stroke-width:2.01px;"/>
            </g>
            <g id="Frame1" transform="matrix(1,0,0,1,8.43927,-65.9137)">
                <g id="Head_Neck">
                    <g id="Neck" transform="matrix(1,0,0,1,0.170017,-3.23444)">
                        <rect x="127.625" y="149.11" width="9.429" height="21.094" style="fill:rgb(0,7,238);"/>
                    </g>
                    <g id="HeadGroup">
                        <g id="Skull" transform="matrix(1,0,0,1,-0.0670881,0)">
                            <path d="M115.095,132.704L115.095,109.529L150.095,109.529L150.095,133.611L150.054,133.611C150.056,133.754 150.058,133.898 150.058,134.043C150.058,145.366 142.216,154.558 132.558,154.558C122.899,154.558 115.058,145.366 115.058,134.043C115.058,133.594 115.07,133.148 115.095,132.704Z" style="fill:rgb(0,7,255);"/>
                        </g>
                        <g id="Eyes">
                            <g id="Eye-Sockets" serif:id="Eye Sockets" transform="matrix(1,0,0,1,0.748091,0)">
                                <g transform="matrix(1,0,0,1,18.8921,-7.03579)">
                                    <ellipse cx="104.91" cy="130.278" rx="3.029" ry="4.036" style="fill:white;"/>
                                </g>
                                <g transform="matrix(1,0,0,1,34.9431,-7.16479)">
                                    <ellipse cx="104.91" cy="130.278" rx="3.029" ry="4.036" style="fill:white;"/>
                                </g>
                            </g>
                            <g id="Pupils">
                                <g id="Iris_Left" transform="matrix(1,0,0,1,32.4311,-9.8937)">
                                    <ellipse cx="92.779" cy="134.316" rx="1.799" ry="1.821"/>
                                </g>
                                <g id="Iris_Right" transform="matrix(1,0,0,1,48.5348,-9.98011)">
                                    <ellipse cx="92.779" cy="134.316" rx="1.799" ry="1.821"/>
                                </g>
                            </g>
                        </g>
                        <g id="Lids">
                            <g id="EyeLid_Right" transform="matrix(1,0,0,1,58.8415,-38.6002)">
                                <path d="M81.6,155.06C83.622,155.06 85.265,156.842 85.265,159.037C85.265,161.232 83.622,159.905 81.6,159.905C79.577,159.905 77.935,161.232 77.935,159.037C77.935,156.842 79.577,155.06 81.6,155.06Z" style="fill:rgb(0,7,238);"/>
                            </g>
                            <g id="EyLid_Left" transform="matrix(1,0,0,1,42.976,-38.8385)">
                                <path d="M81.6,155.06C83.622,155.06 85.265,156.842 85.265,159.037C85.265,161.232 83.622,159.905 81.6,159.905C79.577,159.905 77.935,161.232 77.935,159.037C77.935,156.842 79.577,155.06 81.6,155.06Z" style="fill:rgb(0,7,238);"/>
                            </g>
                        </g>
                        <g id="Mouth" transform="matrix(1,0,0,1,46.7407,-12.9337)">
                            <path d="M85.903,150.785C90.185,150.785 95.1,149.94 95.1,151.321C95.1,152.703 90.185,155.791 85.903,155.791C81.621,155.791 77.327,152.516 77.327,151.135C77.327,149.753 81.621,150.785 85.903,150.785Z"/>
                        </g>
                        <g id="Brows">
                            <g id="EyeBrow_Left" transform="matrix(1,0,0,1,40.8652,-22.9197)">
                                <path d="M83.873,135.855C85.816,135.855 87.394,136.868 87.394,138.116C87.394,139.364 85.816,137.782 83.873,137.782C81.929,137.782 80.352,139.364 80.352,138.116C80.352,136.868 81.929,135.855 83.873,135.855Z"/>
                            </g>
                            <g id="EyeBrow_Right" transform="matrix(1,0,0,1,56.3141,-23.234)">
                                <path d="M83.873,135.855C85.816,135.855 87.394,136.868 87.394,138.116C87.394,139.364 85.816,137.782 83.873,137.782C81.929,137.782 80.352,139.364 80.352,138.116C80.352,136.868 81.929,135.855 83.873,135.855Z"/>
                            </g>
                        </g>
                        <g id="Hair" transform="matrix(1.17095,0,0,1,28.9385,-44.3937)">
                            <path d="M88.208,139.337C97.214,139.337 104.768,147.542 104.768,152.518C104.768,157.493 97.643,153.878 88.637,153.878C79.631,153.878 72.132,157.493 72.132,152.518C72.132,147.542 79.202,139.337 88.208,139.337Z"/>
                        </g>
                    </g>
                </g>
                <g id="Full_Torso">
                    <g transform="matrix(0.791736,-0.60212,0.588215,0.773452,-71.4275,108.815)">
                        <g id="Arm-Left" serif:id="Arm Left">
                            <path d="M121.823,165.717C121.823,164.59 120.929,163.675 119.828,163.675L96.698,163.675C95.597,163.675 94.704,164.59 94.704,165.717L94.704,169.8C94.704,170.927 95.597,171.842 96.698,171.842L119.828,171.842C120.929,171.842 121.823,170.927 121.823,169.8L121.823,165.717Z" style="fill:rgb(0,7,238);"/>
                        </g>
                    </g>
                    <g transform="matrix(1,0,0,1,46.3933,-1.80415)">
                        <g id="Arm-Left1" serif:id="Arm Left">
                            <path d="M121.823,165.717C121.823,164.59 120.908,163.675 119.781,163.675L96.745,163.675C95.618,163.675 94.704,164.59 94.704,165.717L94.704,169.8C94.704,170.927 95.618,171.842 96.745,171.842L119.781,171.842C120.908,171.842 121.823,170.927 121.823,169.8L121.823,165.717Z" style="fill:rgb(0,7,238);"/>
                        </g>
                    </g>
                    <g transform="matrix(1,0,0,1,0.466248,-4.94512)">
                        <g id="Torso">
                            <path d="M145.181,172.108C145.181,168.482 142.238,165.539 138.612,165.539L125.474,165.539C121.848,165.539 118.904,168.482 118.904,172.108L118.904,190.461C118.904,194.086 121.848,197.03 125.474,197.03L138.612,197.03C142.238,197.03 145.181,194.086 145.181,190.461L145.181,172.108Z" style="fill:rgb(0,7,255);"/>
                        </g>
                    </g>
                </g>
            </g>
        </g>
        <g id="Frame10" transform="matrix(1,0,0,1,0,1080)">
            <g transform="matrix(0.979233,0,0,1.01164,55.1229,-7.75977)">
                <rect x="46.598" y="26.821" width="82.756" height="118.619" style="fill:rgb(238,0,30);stroke:black;stroke-width:2.01px;"/>
            </g>
            <g id="Frame12" serif:id="Frame1" transform="matrix(1,0,0,1,8.43927,-65.9137)">
                <g id="Head_Neck1" serif:id="Head_Neck">
                    <g id="Neck1" serif:id="Neck" transform="matrix(1,0,0,1,0.170017,-3.23444)">
                        <rect x="127.625" y="149.11" width="9.429" height="21.094" style="fill:rgb(0,7,238);"/>
                    </g>
                    <g id="HeadGroup1" serif:id="HeadGroup">
                        <g id="Skull1" serif:id="Skull" transform="matrix(1,0,0,1,-0.0670881,0)">
                            <path d="M115.095,132.704L115.095,109.529L150.095,109.529L150.095,133.611L150.054,133.611C150.056,133.754 150.058,133.898 150.058,134.043C150.058,145.366 142.216,154.558 132.558,154.558C122.899,154.558 115.058,145.366 115.058,134.043C115.058,133.594 115.07,133.148 115.095,132.704Z" style="fill:rgb(0,7,255);"/>
                        </g>
                        <g id="Eyes1" serif:id="Eyes">
                            <g id="Eye-Sockets1" serif:id="Eye Sockets" transform="matrix(1,0,0,1,0.748091,0)">
                                <g transform="matrix(1,0,0,1,18.8921,-7.03579)">
                                    <ellipse cx="104.91" cy="130.278" rx="3.029" ry="4.036" style="fill:white;"/>
                                </g>
                                <g transform="matrix(1,0,0,1,34.9431,-7.16479)">
                                    <ellipse cx="104.91" cy="130.278" rx="3.029" ry="4.036" style="fill:white;"/>
                                </g>
                            </g>
                            <g id="Pupils1" serif:id="Pupils">
                                <g id="Iris_Left1" serif:id="Iris_Left" transform="matrix(1,0,0,1,32.4311,-9.8937)">
                                    <ellipse cx="92.779" cy="134.316" rx="1.799" ry="1.821"/>
                                </g>
                                <g id="Iris_Right1" serif:id="Iris_Right" transform="matrix(1,0,0,1,48.5348,-9.98011)">
                                    <ellipse cx="92.779" cy="134.316" rx="1.799" ry="1.821"/>
                                </g>
                            </g>
                        </g>
                        <g id="Lids1" serif:id="Lids" transform="matrix(1,0,0,0.877412,0,14.2474)">
                            <g id="EyeLid_Right1" serif:id="EyeLid_Right" transform="matrix(1,0,0,1,58.8415,-38.6002)">
                                <path d="M81.6,155.06C83.622,155.06 85.265,156.842 85.265,159.037C85.265,161.232 83.622,159.905 81.6,159.905C79.577,159.905 77.935,161.232 77.935,159.037C77.935,156.842 79.577,155.06 81.6,155.06Z" style="fill:rgb(0,7,238);"/>
                            </g>
                            <g id="EyLid_Left1" serif:id="EyLid_Left" transform="matrix(1,0,0,1,42.976,-38.8385)">
                                <path d="M81.6,155.06C83.622,155.06 85.265,156.842 85.265,159.037C85.265,161.232 83.622,159.905 81.6,159.905C79.577,159.905 77.935,161.232 77.935,159.037C77.935,156.842 79.577,155.06 81.6,155.06Z" style="fill:rgb(0,7,238);"/>
                            </g>
                        </g>
                        <g id="Mouth1" serif:id="Mouth" transform="matrix(1,0,0,1,46.7407,-12.9337)">
                            <path d="M85.903,150.785C90.185,150.785 95.1,149.94 95.1,151.321C95.1,152.703 90.185,155.791 85.903,155.791C81.621,155.791 77.327,152.516 77.327,151.135C77.327,149.753 81.621,150.785 85.903,150.785Z"/>
                        </g>
                        <g id="Brows1" serif:id="Brows">
                            <g id="EyeBrow_Left1" serif:id="EyeBrow_Left" transform="matrix(1,0,0,1,40.8652,-22.9197)">
                                <path d="M83.873,135.855C85.816,135.855 87.394,136.868 87.394,138.116C87.394,139.364 85.816,137.782 83.873,137.782C81.929,137.782 80.352,139.364 80.352,138.116C80.352,136.868 81.929,135.855 83.873,135.855Z"/>
                            </g>
                            <g id="EyeBrow_Right1" serif:id="EyeBrow_Right" transform="matrix(1,0,0,1,56.3141,-23.234)">
                                <path d="M83.873,135.855C85.816,135.855 87.394,136.868 87.394,138.116C87.394,139.364 85.816,137.782 83.873,137.782C81.929,137.782 80.352,139.364 80.352,138.116C80.352,136.868 81.929,135.855 83.873,135.855Z"/>
                            </g>
                        </g>
                        <g id="Hair1" serif:id="Hair" transform="matrix(1.17095,0,0,1,28.9385,-44.3937)">
                            <path d="M88.208,139.337C97.214,139.337 104.768,147.542 104.768,152.518C104.768,157.493 97.643,153.878 88.637,153.878C79.631,153.878 72.132,157.493 72.132,152.518C72.132,147.542 79.202,139.337 88.208,139.337Z"/>
                        </g>
                    </g>
                </g>
                <g id="Full_Torso1" serif:id="Full_Torso">
                    <g transform="matrix(0.911894,-0.397296,0.388121,0.890835,-52.4659,64.9156)">
                        <g id="Arm-Left2" serif:id="Arm Left">
                            <path d="M121.823,165.717C121.823,164.59 120.929,163.675 119.828,163.675L96.698,163.675C95.597,163.675 94.704,164.59 94.704,165.717L94.704,169.8C94.704,170.927 95.597,171.842 96.698,171.842L119.828,171.842C120.929,171.842 121.823,170.927 121.823,169.8L121.823,165.717Z" style="fill:rgb(0,7,238);"/>
                        </g>
                    </g>
                    <g transform="matrix(1,0,0,1,46.3933,-1.80415)">
                        <g id="Arm-Left3" serif:id="Arm Left">
                            <path d="M121.823,165.717C121.823,164.59 120.908,163.675 119.781,163.675L96.745,163.675C95.618,163.675 94.704,164.59 94.704,165.717L94.704,169.8C94.704,170.927 95.618,171.842 96.745,171.842L119.781,171.842C120.908,171.842 121.823,170.927 121.823,169.8L121.823,165.717Z" style="fill:rgb(0,7,238);"/>
                        </g>
                    </g>
                    <g transform="matrix(1,0,0,1,0.466248,-4.94512)">
                        <g id="Torso1" serif:id="Torso">
                            <path d="M145.181,172.108C145.181,168.482 142.238,165.539 138.612,165.539L125.474,165.539C121.848,165.539 118.904,168.482 118.904,172.108L118.904,190.461C118.904,194.086 121.848,197.03 125.474,197.03L138.612,197.03C142.238,197.03 145.181,194.086 145.181,190.461L145.181,172.108Z" style="fill:rgb(0,7,255);"/>
                        </g>
                    </g>
                </g>
            </g>
        </g>
        <g id="Frame9" transform="matrix(1,0,0,1,0,960)">
            <g transform="matrix(0.979233,0,0,1.01164,55.1229,-7.75977)">
                <rect x="46.598" y="26.821" width="82.756" height="118.619" style="fill:rgb(238,0,30);stroke:black;stroke-width:2.01px;"/>
            </g>
            <g id="Frame13" serif:id="Frame1" transform="matrix(1,0,0,1,8.43927,-65.9137)">
                <g id="Head_Neck2" serif:id="Head_Neck">
                    <g id="Neck2" serif:id="Neck" transform="matrix(1,0,0,1,0.170017,-3.23444)">
                        <rect x="127.625" y="149.11" width="9.429" height="21.094" style="fill:rgb(0,7,238);"/>
                    </g>
                    <g id="HeadGroup2" serif:id="HeadGroup">
                        <g id="Skull2" serif:id="Skull" transform="matrix(1,0,0,1,-0.0670881,0)">
                            <path d="M115.095,132.704L115.095,109.529L150.095,109.529L150.095,133.611L150.054,133.611C150.056,133.754 150.058,133.898 150.058,134.043C150.058,145.366 142.216,154.558 132.558,154.558C122.899,154.558 115.058,145.366 115.058,134.043C115.058,133.594 115.07,133.148 115.095,132.704Z" style="fill:rgb(0,7,255);"/>
                        </g>
                        <g id="Eyes2" serif:id="Eyes">
                            <g id="Eye-Sockets2" serif:id="Eye Sockets" transform="matrix(1,0,0,1,0.748091,0)">
                                <g transform="matrix(1,0,0,1,18.8921,-7.03579)">
                                    <ellipse cx="104.91" cy="130.278" rx="3.029" ry="4.036" style="fill:white;"/>
                                </g>
                                <g transform="matrix(1,0,0,1,34.9431,-7.16479)">
                                    <ellipse cx="104.91" cy="130.278" rx="3.029" ry="4.036" style="fill:white;"/>
                                </g>
                            </g>
                            <g id="Pupils2" serif:id="Pupils">
                                <g id="Iris_Left2" serif:id="Iris_Left" transform="matrix(1,0,0,1,32.4311,-9.8937)">
                                    <ellipse cx="92.779" cy="134.316" rx="1.799" ry="1.821"/>
                                </g>
                                <g id="Iris_Right2" serif:id="Iris_Right" transform="matrix(1,0,0,1,48.5348,-9.98011)">
                                    <ellipse cx="92.779" cy="134.316" rx="1.799" ry="1.821"/>
                                </g>
                            </g>
                        </g>
                        <g id="Lids2" serif:id="Lids" transform="matrix(1,0,0,1.10895,0,-12.6627)">
                            <g id="EyeLid_Right2" serif:id="EyeLid_Right" transform="matrix(1,0,0,1,58.8415,-38.6002)">
                                <path d="M81.6,155.06C83.622,155.06 85.265,156.842 85.265,159.037C85.265,161.232 83.622,159.905 81.6,159.905C79.577,159.905 77.935,161.232 77.935,159.037C77.935,156.842 79.577,155.06 81.6,155.06Z" style="fill:rgb(0,7,238);"/>
                            </g>
                            <g id="EyLid_Left2" serif:id="EyLid_Left" transform="matrix(1,0,0,1,42.976,-38.8385)">
                                <path d="M81.6,155.06C83.622,155.06 85.265,156.842 85.265,159.037C85.265,161.232 83.622,159.905 81.6,159.905C79.577,159.905 77.935,161.232 77.935,159.037C77.935,156.842 79.577,155.06 81.6,155.06Z" style="fill:rgb(0,7,238);"/>
                            </g>
                        </g>
                        <g id="Mouth2" serif:id="Mouth" transform="matrix(1,0,0,1,46.7407,-12.9337)">
                            <path d="M85.903,150.785C90.185,150.785 95.1,149.94 95.1,151.321C95.1,152.703 90.185,155.791 85.903,155.791C81.621,155.791 77.327,152.516 77.327,151.135C77.327,149.753 81.621,150.785 85.903,150.785Z"/>
                        </g>
                        <g id="Brows2" serif:id="Brows">
                            <g id="EyeBrow_Left2" serif:id="EyeBrow_Left" transform="matrix(1,0,0,1,40.8652,-22.9197)">
                                <path d="M83.873,135.855C85.816,135.855 87.394,136.868 87.394,138.116C87.394,139.364 85.816,137.782 83.873,137.782C81.929,137.782 80.352,139.364 80.352,138.116C80.352,136.868 81.929,135.855 83.873,135.855Z"/>
                            </g>
                            <g id="EyeBrow_Right2" serif:id="EyeBrow_Right" transform="matrix(1,0,0,1,56.3141,-23.234)">
                                <path d="M83.873,135.855C85.816,135.855 87.394,136.868 87.394,138.116C87.394,139.364 85.816,137.782 83.873,137.782C81.929,137.782 80.352,139.364 80.352,138.116C80.352,136.868 81.929,135.855 83.873,135.855Z"/>
                            </g>
                        </g>
                        <g id="Hair2" serif:id="Hair" transform="matrix(1.17095,0,0,1,28.9385,-44.3937)">
                            <path d="M88.208,139.337C97.214,139.337 104.768,147.542 104.768,152.518C104.768,157.493 97.643,153.878 88.637,153.878C79.631,153.878 72.132,157.493 72.132,152.518C72.132,147.542 79.202,139.337 88.208,139.337Z"/>
                        </g>
                    </g>
                </g>
                <g id="Full_Torso2" serif:id="Full_Torso">
                    <g transform="matrix(0.990902,-0.086648,0.084647,0.968018,-10.3927,14.7371)">
                        <g id="Arm-Left4" serif:id="Arm Left">
                            <path d="M121.823,165.717C121.823,164.59 120.929,163.675 119.828,163.675L96.698,163.675C95.597,163.675 94.704,164.59 94.704,165.717L94.704,169.8C94.704,170.927 95.597,171.842 96.698,171.842L119.828,171.842C120.929,171.842 121.823,170.927 121.823,169.8L121.823,165.717Z" style="fill:rgb(0,7,238);"/>
                        </g>
                    </g>
                    <g transform="matrix(1,0,0,1,46.3933,-1.80415)">
                        <g id="Arm-Left5" serif:id="Arm Left">
                            <path d="M121.823,165.717C121.823,164.59 120.908,163.675 119.781,163.675L96.745,163.675C95.618,163.675 94.704,164.59 94.704,165.717L94.704,169.8C94.704,170.927 95.618,171.842 96.745,171.842L119.781,171.842C120.908,171.842 121.823,170.927 121.823,169.8L121.823,165.717Z" style="fill:rgb(0,7,238);"/>
                        </g>
                    </g>
                    <g transform="matrix(1,0,0,1,0.466248,-4.94512)">
                        <g id="Torso2" serif:id="Torso">
                            <path d="M145.181,172.108C145.181,168.482 142.238,165.539 138.612,165.539L125.474,165.539C121.848,165.539 118.904,168.482 118.904,172.108L118.904,190.461C118.904,194.086 121.848,197.03 125.474,197.03L138.612,197.03C142.238,197.03 145.181,194.086 145.181,190.461L145.181,172.108Z" style="fill:rgb(0,7,255);"/>
                        </g>
                    </g>
                </g>
            </g>
        </g>
        <g id="Frame8" transform="matrix(1,0,0,1,0,840)">
            <g transform="matrix(0.979233,0,0,1.01164,55.1229,-7.75977)">
                <rect x="46.598" y="26.821" width="82.756" height="118.619" style="fill:rgb(238,0,30);stroke:black;stroke-width:2.01px;"/>
            </g>
            <g id="Frame14" serif:id="Frame1" transform="matrix(1,0,0,1,8.43927,-65.9137)">
                <g id="Head_Neck3" serif:id="Head_Neck">
                    <g id="Neck3" serif:id="Neck" transform="matrix(1,0,0,1,0.170017,-3.23444)">
                        <rect x="127.625" y="149.11" width="9.429" height="21.094" style="fill:rgb(0,7,238);"/>
                    </g>
                    <g id="HeadGroup3" serif:id="HeadGroup">
                        <g id="Skull3" serif:id="Skull" transform="matrix(1,0,0,1,-0.0670881,0)">
                            <path d="M115.095,132.704L115.095,109.529L150.095,109.529L150.095,133.611L150.054,133.611C150.056,133.754 150.058,133.898 150.058,134.043C150.058,145.366 142.216,154.558 132.558,154.558C122.899,154.558 115.058,145.366 115.058,134.043C115.058,133.594 115.07,133.148 115.095,132.704Z" style="fill:rgb(0,7,255);"/>
                        </g>
                        <g id="Eyes3" serif:id="Eyes">
                            <g id="Eye-Sockets3" serif:id="Eye Sockets" transform="matrix(1,0,0,1,0.748091,0)">
                                <g transform="matrix(1,0,0,1,18.8921,-7.03579)">
                                    <ellipse cx="104.91" cy="130.278" rx="3.029" ry="4.036" style="fill:white;"/>
                                </g>
                                <g transform="matrix(1,0,0,1,34.9431,-7.16479)">
                                    <ellipse cx="104.91" cy="130.278" rx="3.029" ry="4.036" style="fill:white;"/>
                                </g>
                            </g>
                            <g id="Pupils3" serif:id="Pupils">
                                <g id="Iris_Left3" serif:id="Iris_Left" transform="matrix(1,0,0,1,32.4311,-9.8937)">
                                    <ellipse cx="92.779" cy="134.316" rx="1.799" ry="1.821"/>
                                </g>
                                <g id="Iris_Right3" serif:id="Iris_Right" transform="matrix(1,0,0,1,48.5348,-9.98011)">
                                    <ellipse cx="92.779" cy="134.316" rx="1.799" ry="1.821"/>
                                </g>
                            </g>
                        </g>
                        <g id="Lids3" serif:id="Lids" transform="matrix(1,0,0,1.27151,0,-31.5554)">
                            <g id="EyeLid_Right3" serif:id="EyeLid_Right" transform="matrix(1,0,0,1,58.8415,-38.6002)">
                                <path d="M81.6,155.06C83.622,155.06 85.265,156.842 85.265,159.037C85.265,161.232 83.622,159.905 81.6,159.905C79.577,159.905 77.935,161.232 77.935,159.037C77.935,156.842 79.577,155.06 81.6,155.06Z" style="fill:rgb(0,7,238);"/>
                            </g>
                            <g id="EyLid_Left3" serif:id="EyLid_Left" transform="matrix(1,0,0,1,42.976,-38.8385)">
                                <path d="M81.6,155.06C83.622,155.06 85.265,156.842 85.265,159.037C85.265,161.232 83.622,159.905 81.6,159.905C79.577,159.905 77.935,161.232 77.935,159.037C77.935,156.842 79.577,155.06 81.6,155.06Z" style="fill:rgb(0,7,238);"/>
                            </g>
                        </g>
                        <g id="Mouth3" serif:id="Mouth" transform="matrix(1,0,0,1,46.7407,-12.9337)">
                            <path d="M85.903,150.785C90.185,150.785 95.1,149.94 95.1,151.321C95.1,152.703 90.185,155.791 85.903,155.791C81.621,155.791 77.327,152.516 77.327,151.135C77.327,149.753 81.621,150.785 85.903,150.785Z"/>
                        </g>
                        <g id="Brows3" serif:id="Brows">
                            <g id="EyeBrow_Left3" serif:id="EyeBrow_Left" transform="matrix(1,0,0,1,40.8652,-22.9197)">
                                <path d="M83.873,135.855C85.816,135.855 87.394,136.868 87.394,138.116C87.394,139.364 85.816,137.782 83.873,137.782C81.929,137.782 80.352,139.364 80.352,138.116C80.352,136.868 81.929,135.855 83.873,135.855Z"/>
                            </g>
                            <g id="EyeBrow_Right3" serif:id="EyeBrow_Right" transform="matrix(1,0,0,1,56.3141,-23.234)">
                                <path d="M83.873,135.855C85.816,135.855 87.394,136.868 87.394,138.116C87.394,139.364 85.816,137.782 83.873,137.782C81.929,137.782 80.352,139.364 80.352,138.116C80.352,136.868 81.929,135.855 83.873,135.855Z"/>
                            </g>
                        </g>
                        <g id="Hair3" serif:id="Hair" transform="matrix(1.17095,0,0,1,28.9385,-44.3937)">
                            <path d="M88.208,139.337C97.214,139.337 104.768,147.542 104.768,152.518C104.768,157.493 97.643,153.878 88.637,153.878C79.631,153.878 72.132,157.493 72.132,152.518C72.132,147.542 79.202,139.337 88.208,139.337Z"/>
                        </g>
                    </g>
                </g>
                <g id="Full_Torso3" serif:id="Full_Torso">
                    <g transform="matrix(0.967439,0.231204,-0.225865,0.945098,44.0862,-18.7971)">
                        <g id="Arm-Left6" serif:id="Arm Left">
                            <path d="M121.823,165.717C121.823,164.59 120.929,163.675 119.828,163.675L96.698,163.675C95.597,163.675 94.704,164.59 94.704,165.717L94.704,169.8C94.704,170.927 95.597,171.842 96.698,171.842L119.828,171.842C120.929,171.842 121.823,170.927 121.823,169.8L121.823,165.717Z" style="fill:rgb(0,7,238);"/>
                        </g>
                    </g>
                    <g transform="matrix(1,0,0,1,46.3933,-1.80415)">
                        <g id="Arm-Left7" serif:id="Arm Left">
                            <path d="M121.823,165.717C121.823,164.59 120.908,163.675 119.781,163.675L96.745,163.675C95.618,163.675 94.704,164.59 94.704,165.717L94.704,169.8C94.704,170.927 95.618,171.842 96.745,171.842L119.781,171.842C120.908,171.842 121.823,170.927 121.823,169.8L121.823,165.717Z" style="fill:rgb(0,7,238);"/>
                        </g>
                    </g>
                    <g transform="matrix(1,0,0,1,0.466248,-4.94512)">
                        <g id="Torso3" serif:id="Torso">
                            <path d="M145.181,172.108C145.181,168.482 142.238,165.539 138.612,165.539L125.474,165.539C121.848,165.539 118.904,168.482 118.904,172.108L118.904,190.461C118.904,194.086 121.848,197.03 125.474,197.03L138.612,197.03C142.238,197.03 145.181,194.086 145.181,190.461L145.181,172.108Z" style="fill:rgb(0,7,255);"/>
                        </g>
                    </g>
                </g>
            </g>
        </g>
        <g id="Frame7" transform="matrix(1,0,0,1,0,720)">
            <g transform="matrix(0.979233,0,0,1.01164,55.1229,-7.75977)">
                <rect x="46.598" y="26.821" width="82.756" height="118.619" style="fill:rgb(238,0,30);stroke:black;stroke-width:2.01px;"/>
            </g>
            <g id="Frame15" serif:id="Frame1" transform="matrix(1,0,0,1,8.43927,-65.9137)">
                <g id="Head_Neck4" serif:id="Head_Neck">
                    <g id="Neck4" serif:id="Neck" transform="matrix(1,0,0,1,0.170017,-3.23444)">
                        <rect x="127.625" y="149.11" width="9.429" height="21.094" style="fill:rgb(0,7,238);"/>
                    </g>
                    <g id="HeadGroup4" serif:id="HeadGroup">
                        <g id="Skull4" serif:id="Skull" transform="matrix(1,0,0,1,-0.0670881,0)">
                            <path d="M115.095,132.704L115.095,109.529L150.095,109.529L150.095,133.611L150.054,133.611C150.056,133.754 150.058,133.898 150.058,134.043C150.058,145.366 142.216,154.558 132.558,154.558C122.899,154.558 115.058,145.366 115.058,134.043C115.058,133.594 115.07,133.148 115.095,132.704Z" style="fill:rgb(0,7,255);"/>
                        </g>
                        <g id="Eyes4" serif:id="Eyes">
                            <g id="Eye-Sockets4" serif:id="Eye Sockets" transform="matrix(1,0,0,1,0.748091,0)">
                                <g transform="matrix(1,0,0,1,18.8921,-7.03579)">
                                    <ellipse cx="104.91" cy="130.278" rx="3.029" ry="4.036" style="fill:white;"/>
                                </g>
                                <g transform="matrix(1,0,0,1,34.9431,-7.16479)">
                                    <ellipse cx="104.91" cy="130.278" rx="3.029" ry="4.036" style="fill:white;"/>
                                </g>
                            </g>
                            <g id="Pupils4" serif:id="Pupils">
                                <g id="Iris_Left4" serif:id="Iris_Left" transform="matrix(1,0,0,1,32.4311,-9.8937)">
                                    <ellipse cx="92.779" cy="134.316" rx="1.799" ry="1.821"/>
                                </g>
                                <g id="Iris_Right4" serif:id="Iris_Right" transform="matrix(1,0,0,1,48.5348,-9.98011)">
                                    <ellipse cx="92.779" cy="134.316" rx="1.799" ry="1.821"/>
                                </g>
                            </g>
                        </g>
                        <g id="Lids4" serif:id="Lids" transform="matrix(1,0,0,1.48081,0,-55.8801)">
                            <g id="EyeLid_Right4" serif:id="EyeLid_Right" transform="matrix(1,0,0,1,58.8415,-38.6002)">
                                <path d="M81.6,155.06C83.622,155.06 85.265,156.842 85.265,159.037C85.265,161.232 83.622,159.905 81.6,159.905C79.577,159.905 77.935,161.232 77.935,159.037C77.935,156.842 79.577,155.06 81.6,155.06Z" style="fill:rgb(0,7,238);"/>
                            </g>
                            <g id="EyLid_Left4" serif:id="EyLid_Left" transform="matrix(1,0,0,1,42.976,-38.8385)">
                                <path d="M81.6,155.06C83.622,155.06 85.265,156.842 85.265,159.037C85.265,161.232 83.622,159.905 81.6,159.905C79.577,159.905 77.935,161.232 77.935,159.037C77.935,156.842 79.577,155.06 81.6,155.06Z" style="fill:rgb(0,7,238);"/>
                            </g>
                        </g>
                        <g id="Mouth4" serif:id="Mouth" transform="matrix(1,0,0,1,46.7407,-12.9337)">
                            <path d="M85.903,150.785C90.185,150.785 95.1,149.94 95.1,151.321C95.1,152.703 90.185,155.791 85.903,155.791C81.621,155.791 77.327,152.516 77.327,151.135C77.327,149.753 81.621,150.785 85.903,150.785Z"/>
                        </g>
                        <g id="Brows4" serif:id="Brows">
                            <g id="EyeBrow_Left4" serif:id="EyeBrow_Left" transform="matrix(1,0,0,1,40.8652,-22.9197)">
                                <path d="M83.873,135.855C85.816,135.855 87.394,136.868 87.394,138.116C87.394,139.364 85.816,137.782 83.873,137.782C81.929,137.782 80.352,139.364 80.352,138.116C80.352,136.868 81.929,135.855 83.873,135.855Z"/>
                            </g>
                            <g id="EyeBrow_Right4" serif:id="EyeBrow_Right" transform="matrix(1,0,0,1,56.3141,-23.234)">
                                <path d="M83.873,135.855C85.816,135.855 87.394,136.868 87.394,138.116C87.394,139.364 85.816,137.782 83.873,137.782C81.929,137.782 80.352,139.364 80.352,138.116C80.352,136.868 81.929,135.855 83.873,135.855Z"/>
                            </g>
                        </g>
                        <g id="Hair4" serif:id="Hair" transform="matrix(1.17095,0,0,1,28.9385,-44.3937)">
                            <path d="M88.208,139.337C97.214,139.337 104.768,147.542 104.768,152.518C104.768,157.493 97.643,153.878 88.637,153.878C79.631,153.878 72.132,157.493 72.132,152.518C72.132,147.542 79.202,139.337 88.208,139.337Z"/>
                        </g>
                    </g>
                </g>
                <g id="Full_Torso4" serif:id="Full_Torso">
                    <g transform="matrix(0.861799,0.496686,-0.485216,0.841897,99.9104,-32.2159)">
                        <g id="Arm-Left8" serif:id="Arm Left">
                            <path d="M121.823,165.717C121.823,164.59 120.929,163.675 119.828,163.675L96.698,163.675C95.597,163.675 94.704,164.59 94.704,165.717L94.704,169.8C94.704,170.927 95.597,171.842 96.698,171.842L119.828,171.842C120.929,171.842 121.823,170.927 121.823,169.8L121.823,165.717Z" style="fill:rgb(0,7,238);"/>
                        </g>
                    </g>
                    <g transform="matrix(1,0,0,1,46.3933,-1.80415)">
                        <g id="Arm-Left9" serif:id="Arm Left">
                            <path d="M121.823,165.717C121.823,164.59 120.908,163.675 119.781,163.675L96.745,163.675C95.618,163.675 94.704,164.59 94.704,165.717L94.704,169.8C94.704,170.927 95.618,171.842 96.745,171.842L119.781,171.842C120.908,171.842 121.823,170.927 121.823,169.8L121.823,165.717Z" style="fill:rgb(0,7,238);"/>
                        </g>
                    </g>
                    <g transform="matrix(1,0,0,1,0.466248,-4.94512)">
                        <g id="Torso4" serif:id="Torso">
                            <path d="M145.181,172.108C145.181,168.482 142.238,165.539 138.612,165.539L125.474,165.539C121.848,165.539 118.904,168.482 118.904,172.108L118.904,190.461C118.904,194.086 121.848,197.03 125.474,197.03L138.612,197.03C142.238,197.03 145.181,194.086 145.181,190.461L145.181,172.108Z" style="fill:rgb(0,7,255);"/>
                        </g>
                    </g>
                </g>
            </g>
        </g>
        <g id="Frame6" transform="matrix(1,0,0,1,0,600)">
            <g transform="matrix(0.979233,0,0,1.01164,55.1229,-7.75977)">
                <rect x="46.598" y="26.821" width="82.756" height="118.619" style="fill:rgb(238,0,30);stroke:black;stroke-width:2.01px;"/>
            </g>
            <g id="Frame16" serif:id="Frame1" transform="matrix(1,0,0,1,8.43927,-65.9137)">
                <g id="Head_Neck5" serif:id="Head_Neck">
                    <g id="Neck5" serif:id="Neck" transform="matrix(1,0,0,1,0.170017,-3.23444)">
                        <rect x="127.625" y="149.11" width="9.429" height="21.094" style="fill:rgb(0,7,238);"/>
                    </g>
                    <g id="HeadGroup5" serif:id="HeadGroup">
                        <g id="Skull5" serif:id="Skull" transform="matrix(1,0,0,1,-0.0670881,0)">
                            <path d="M115.095,132.704L115.095,109.529L150.095,109.529L150.095,133.611L150.054,133.611C150.056,133.754 150.058,133.898 150.058,134.043C150.058,145.366 142.216,154.558 132.558,154.558C122.899,154.558 115.058,145.366 115.058,134.043C115.058,133.594 115.07,133.148 115.095,132.704Z" style="fill:rgb(0,7,255);"/>
                        </g>
                        <g id="Eyes5" serif:id="Eyes">
                            <g id="Eye-Sockets5" serif:id="Eye Sockets" transform="matrix(1,0,0,1,0.748091,0)">
                                <g transform="matrix(1,0,0,1,18.8921,-7.03579)">
                                    <ellipse cx="104.91" cy="130.278" rx="3.029" ry="4.036" style="fill:white;"/>
                                </g>
                                <g transform="matrix(1,0,0,1,34.9431,-7.16479)">
                                    <ellipse cx="104.91" cy="130.278" rx="3.029" ry="4.036" style="fill:white;"/>
                                </g>
                            </g>
                            <g id="Pupils5" serif:id="Pupils">
                                <g id="Iris_Left5" serif:id="Iris_Left" transform="matrix(1,0,0,1,32.4311,-9.8937)">
                                    <ellipse cx="92.779" cy="134.316" rx="1.799" ry="1.821"/>
                                </g>
                                <g id="Iris_Right5" serif:id="Iris_Right" transform="matrix(1,0,0,1,48.5348,-9.98011)">
                                    <ellipse cx="92.779" cy="134.316" rx="1.799" ry="1.821"/>
                                </g>
                            </g>
                        </g>
                        <g id="Lids5" serif:id="Lids" transform="matrix(1,0,0,1.72983,0,-84.8226)">
                            <g id="EyeLid_Right5" serif:id="EyeLid_Right" transform="matrix(1,0,0,1,58.8415,-38.6002)">
                                <path d="M81.6,155.06C83.622,155.06 85.265,156.842 85.265,159.037C85.265,161.232 83.622,159.905 81.6,159.905C79.577,159.905 77.935,161.232 77.935,159.037C77.935,156.842 79.577,155.06 81.6,155.06Z" style="fill:rgb(0,7,238);"/>
                            </g>
                            <g id="EyLid_Left5" serif:id="EyLid_Left" transform="matrix(1,0,0,1,42.976,-38.8385)">
                                <path d="M81.6,155.06C83.622,155.06 85.265,156.842 85.265,159.037C85.265,161.232 83.622,159.905 81.6,159.905C79.577,159.905 77.935,161.232 77.935,159.037C77.935,156.842 79.577,155.06 81.6,155.06Z" style="fill:rgb(0,7,238);"/>
                            </g>
                        </g>
                        <g id="Mouth5" serif:id="Mouth" transform="matrix(1,0,0,1,46.7407,-12.9337)">
                            <path d="M85.903,150.785C90.185,150.785 95.1,149.94 95.1,151.321C95.1,152.703 90.185,155.791 85.903,155.791C81.621,155.791 77.327,152.516 77.327,151.135C77.327,149.753 81.621,150.785 85.903,150.785Z"/>
                        </g>
                        <g id="Brows5" serif:id="Brows">
                            <g id="EyeBrow_Left5" serif:id="EyeBrow_Left" transform="matrix(1,0,0,1,40.8652,-22.9197)">
                                <path d="M83.873,135.855C85.816,135.855 87.394,136.868 87.394,138.116C87.394,139.364 85.816,137.782 83.873,137.782C81.929,137.782 80.352,139.364 80.352,138.116C80.352,136.868 81.929,135.855 83.873,135.855Z"/>
                            </g>
                            <g id="EyeBrow_Right5" serif:id="EyeBrow_Right" transform="matrix(1,0,0,1,56.3141,-23.234)">
                                <path d="M83.873,135.855C85.816,135.855 87.394,136.868 87.394,138.116C87.394,139.364 85.816,137.782 83.873,137.782C81.929,137.782 80.352,139.364 80.352,138.116C80.352,136.868 81.929,135.855 83.873,135.855Z"/>
                            </g>
                        </g>
                        <g id="Hair5" serif:id="Hair" transform="matrix(1.17095,0,0,1,28.9385,-44.3937)">
                            <path d="M88.208,139.337C97.214,139.337 104.768,147.542 104.768,152.518C104.768,157.493 97.643,153.878 88.637,153.878C79.631,153.878 72.132,157.493 72.132,152.518C72.132,147.542 79.202,139.337 88.208,139.337Z"/>
                        </g>
                    </g>
                </g>
                <g id="Full_Torso5" serif:id="Full_Torso">
                    <g transform="matrix(0.794935,0.59789,-0.584082,0.776578,123.832,-32.9894)">
                        <g id="Arm-Left10" serif:id="Arm Left">
                            <path d="M121.823,165.717C121.823,164.59 120.929,163.675 119.828,163.675L96.698,163.675C95.597,163.675 94.704,164.59 94.704,165.717L94.704,169.8C94.704,170.927 95.597,171.842 96.698,171.842L119.828,171.842C120.929,171.842 121.823,170.927 121.823,169.8L121.823,165.717Z" style="fill:rgb(0,7,238);"/>
                        </g>
                    </g>
                    <g transform="matrix(1,0,0,1,46.3933,-1.80415)">
                        <g id="Arm-Left11" serif:id="Arm Left">
                            <path d="M121.823,165.717C121.823,164.59 120.908,163.675 119.781,163.675L96.745,163.675C95.618,163.675 94.704,164.59 94.704,165.717L94.704,169.8C94.704,170.927 95.618,171.842 96.745,171.842L119.781,171.842C120.908,171.842 121.823,170.927 121.823,169.8L121.823,165.717Z" style="fill:rgb(0,7,238);"/>
                        </g>
                    </g>
                    <g transform="matrix(1,0,0,1,0.466248,-4.94512)">
                        <g id="Torso5" serif:id="Torso">
                            <path d="M145.181,172.108C145.181,168.482 142.238,165.539 138.612,165.539L125.474,165.539C121.848,165.539 118.904,168.482 118.904,172.108L118.904,190.461C118.904,194.086 121.848,197.03 125.474,197.03L138.612,197.03C142.238,197.03 145.181,194.086 145.181,190.461L145.181,172.108Z" style="fill:rgb(0,7,255);"/>
                        </g>
                    </g>
                </g>
            </g>
        </g>
        <g id="Frame5" transform="matrix(1,0,0,1,0,480)">
            <g transform="matrix(0.979233,0,0,1.01164,55.1229,-7.75977)">
                <rect x="46.598" y="26.821" width="82.756" height="118.619" style="fill:rgb(238,0,30);stroke:black;stroke-width:2.01px;"/>
            </g>
            <g id="Frame17" serif:id="Frame1" transform="matrix(1,0,0,1,8.43927,-65.9137)">
                <g id="Head_Neck6" serif:id="Head_Neck">
                    <g id="Neck6" serif:id="Neck" transform="matrix(1,0,0,1,0.170017,-3.23444)">
                        <rect x="127.625" y="149.11" width="9.429" height="21.094" style="fill:rgb(0,7,238);"/>
                    </g>
                    <g id="HeadGroup6" serif:id="HeadGroup">
                        <g id="Skull6" serif:id="Skull" transform="matrix(1,0,0,1,-0.0670881,0)">
                            <path d="M115.095,132.704L115.095,109.529L150.095,109.529L150.095,133.611L150.054,133.611C150.056,133.754 150.058,133.898 150.058,134.043C150.058,145.366 142.216,154.558 132.558,154.558C122.899,154.558 115.058,145.366 115.058,134.043C115.058,133.594 115.07,133.148 115.095,132.704Z" style="fill:rgb(0,7,255);"/>
                        </g>
                        <g id="Eyes6" serif:id="Eyes">
                            <g id="Eye-Sockets6" serif:id="Eye Sockets" transform="matrix(1,0,0,1,0.748091,0)">
                                <g transform="matrix(1,0,0,1,18.8921,-7.03579)">
                                    <ellipse cx="104.91" cy="130.278" rx="3.029" ry="4.036" style="fill:white;"/>
                                </g>
                                <g transform="matrix(1,0,0,1,34.9431,-7.16479)">
                                    <ellipse cx="104.91" cy="130.278" rx="3.029" ry="4.036" style="fill:white;"/>
                                </g>
                            </g>
                            <g id="Pupils6" serif:id="Pupils">
                                <g id="Iris_Left6" serif:id="Iris_Left" transform="matrix(1,0,0,1,32.4311,-9.8937)">
                                    <ellipse cx="92.779" cy="134.316" rx="1.799" ry="1.821"/>
                                </g>
                                <g id="Iris_Right6" serif:id="Iris_Right" transform="matrix(1,0,0,1,48.5348,-9.98011)">
                                    <ellipse cx="92.779" cy="134.316" rx="1.799" ry="1.821"/>
                                </g>
                            </g>
                        </g>
                        <g id="Lids6" serif:id="Lids" transform="matrix(1,0,0,2.37767,0,-160.116)">
                            <g id="EyeLid_Right6" serif:id="EyeLid_Right" transform="matrix(1,0,0,1,58.8415,-38.6002)">
                                <path d="M81.6,155.06C83.622,155.06 85.265,156.842 85.265,159.037C85.265,161.232 83.622,159.905 81.6,159.905C79.577,159.905 77.935,161.232 77.935,159.037C77.935,156.842 79.577,155.06 81.6,155.06Z" style="fill:rgb(0,7,238);"/>
                            </g>
                            <g id="EyLid_Left6" serif:id="EyLid_Left" transform="matrix(1,0,0,1,42.976,-38.8385)">
                                <path d="M81.6,155.06C83.622,155.06 85.265,156.842 85.265,159.037C85.265,161.232 83.622,159.905 81.6,159.905C79.577,159.905 77.935,161.232 77.935,159.037C77.935,156.842 79.577,155.06 81.6,155.06Z" style="fill:rgb(0,7,238);"/>
                            </g>
                        </g>
                        <g id="Mouth6" serif:id="Mouth" transform="matrix(1,0,0,1,46.7407,-12.9337)">
                            <path d="M85.903,150.785C90.185,150.785 95.1,149.94 95.1,151.321C95.1,152.703 90.185,155.791 85.903,155.791C81.621,155.791 77.327,152.516 77.327,151.135C77.327,149.753 81.621,150.785 85.903,150.785Z"/>
                        </g>
                        <g id="Brows6" serif:id="Brows">
                            <g id="EyeBrow_Left6" serif:id="EyeBrow_Left" transform="matrix(1,0,0,1,40.8652,-22.9197)">
                                <path d="M83.873,135.855C85.816,135.855 87.394,136.868 87.394,138.116C87.394,139.364 85.816,137.782 83.873,137.782C81.929,137.782 80.352,139.364 80.352,138.116C80.352,136.868 81.929,135.855 83.873,135.855Z"/>
                            </g>
                            <g id="EyeBrow_Right6" serif:id="EyeBrow_Right" transform="matrix(1,0,0,1,56.3141,-23.234)">
                                <path d="M83.873,135.855C85.816,135.855 87.394,136.868 87.394,138.116C87.394,139.364 85.816,137.782 83.873,137.782C81.929,137.782 80.352,139.364 80.352,138.116C80.352,136.868 81.929,135.855 83.873,135.855Z"/>
                            </g>
                        </g>
                        <g id="Hair6" serif:id="Hair" transform="matrix(1.17095,0,0,1,28.9385,-44.3937)">
                            <path d="M88.208,139.337C97.214,139.337 104.768,147.542 104.768,152.518C104.768,157.493 97.643,153.878 88.637,153.878C79.631,153.878 72.132,157.493 72.132,152.518C72.132,147.542 79.202,139.337 88.208,139.337Z"/>
                        </g>
                    </g>
                </g>
                <g id="Full_Torso6" serif:id="Full_Torso">
                    <g transform="matrix(0.848258,0.519473,-0.507477,0.828669,104.885,-32.2915)">
                        <g id="Arm-Left12" serif:id="Arm Left">
                            <path d="M121.823,165.717C121.823,164.59 120.929,163.675 119.828,163.675L96.698,163.675C95.597,163.675 94.704,164.59 94.704,165.717L94.704,169.8C94.704,170.927 95.597,171.842 96.698,171.842L119.828,171.842C120.929,171.842 121.823,170.927 121.823,169.8L121.823,165.717Z" style="fill:rgb(0,7,238);"/>
                        </g>
                    </g>
                    <g transform="matrix(1,0,0,1,46.3933,-1.80415)">
                        <g id="Arm-Left13" serif:id="Arm Left">
                            <path d="M121.823,165.717C121.823,164.59 120.908,163.675 119.781,163.675L96.745,163.675C95.618,163.675 94.704,164.59 94.704,165.717L94.704,169.8C94.704,170.927 95.618,171.842 96.745,171.842L119.781,171.842C120.908,171.842 121.823,170.927 121.823,169.8L121.823,165.717Z" style="fill:rgb(0,7,238);"/>
                        </g>
                    </g>
                    <g transform="matrix(1,0,0,1,0.466248,-4.94512)">
                        <g id="Torso6" serif:id="Torso">
                            <path d="M145.181,172.108C145.181,168.482 142.238,165.539 138.612,165.539L125.474,165.539C121.848,165.539 118.904,168.482 118.904,172.108L118.904,190.461C118.904,194.086 121.848,197.03 125.474,197.03L138.612,197.03C142.238,197.03 145.181,194.086 145.181,190.461L145.181,172.108Z" style="fill:rgb(0,7,255);"/>
                        </g>
                    </g>
                </g>
            </g>
        </g>
        <g id="Frame4" transform="matrix(1,0,0,1,0,360)">
            <g transform="matrix(0.979233,0,0,1.01164,55.1229,-7.75977)">
                <rect x="46.598" y="26.821" width="82.756" height="118.619" style="fill:rgb(238,0,30);stroke:black;stroke-width:2.01px;"/>
            </g>
            <g id="Frame18" serif:id="Frame1" transform="matrix(1,0,0,1,8.43927,-65.9137)">
                <g id="Head_Neck7" serif:id="Head_Neck">
                    <g id="Neck7" serif:id="Neck" transform="matrix(1,0,0,1,0.170017,-3.23444)">
                        <rect x="127.625" y="149.11" width="9.429" height="21.094" style="fill:rgb(0,7,238);"/>
                    </g>
                    <g id="HeadGroup7" serif:id="HeadGroup">
                        <g id="Skull7" serif:id="Skull" transform="matrix(1,0,0,1,-0.0670881,0)">
                            <path d="M115.095,132.704L115.095,109.529L150.095,109.529L150.095,133.611L150.054,133.611C150.056,133.754 150.058,133.898 150.058,134.043C150.058,145.366 142.216,154.558 132.558,154.558C122.899,154.558 115.058,145.366 115.058,134.043C115.058,133.594 115.07,133.148 115.095,132.704Z" style="fill:rgb(0,7,255);"/>
                        </g>
                        <g id="Eyes7" serif:id="Eyes">
                            <g id="Eye-Sockets7" serif:id="Eye Sockets" transform="matrix(1,0,0,1,0.748091,0)">
                                <g transform="matrix(1,0,0,1,18.8921,-7.03579)">
                                    <ellipse cx="104.91" cy="130.278" rx="3.029" ry="4.036" style="fill:white;"/>
                                </g>
                                <g transform="matrix(1,0,0,1,34.9431,-7.16479)">
                                    <ellipse cx="104.91" cy="130.278" rx="3.029" ry="4.036" style="fill:white;"/>
                                </g>
                            </g>
                            <g id="Pupils7" serif:id="Pupils">
                                <g id="Iris_Left7" serif:id="Iris_Left" transform="matrix(1,0,0,1,32.4311,-9.8937)">
                                    <ellipse cx="92.779" cy="134.316" rx="1.799" ry="1.821"/>
                                </g>
                                <g id="Iris_Right7" serif:id="Iris_Right" transform="matrix(1,0,0,1,48.5348,-9.98011)">
                                    <ellipse cx="92.779" cy="134.316" rx="1.799" ry="1.821"/>
                                </g>
                            </g>
                        </g>
                        <g id="Lids7" serif:id="Lids" transform="matrix(1,0,0,1.76051,0,-88.3878)">
                            <g id="EyeLid_Right7" serif:id="EyeLid_Right" transform="matrix(1,0,0,1,58.8415,-38.6002)">
                                <path d="M81.6,155.06C83.622,155.06 85.265,156.842 85.265,159.037C85.265,161.232 83.622,159.905 81.6,159.905C79.577,159.905 77.935,161.232 77.935,159.037C77.935,156.842 79.577,155.06 81.6,155.06Z" style="fill:rgb(0,7,238);"/>
                            </g>
                            <g id="EyLid_Left7" serif:id="EyLid_Left" transform="matrix(1,0,0,1,42.976,-38.8385)">
                                <path d="M81.6,155.06C83.622,155.06 85.265,156.842 85.265,159.037C85.265,161.232 83.622,159.905 81.6,159.905C79.577,159.905 77.935,161.232 77.935,159.037C77.935,156.842 79.577,155.06 81.6,155.06Z" style="fill:rgb(0,7,238);"/>
                            </g>
                        </g>
                        <g id="Mouth7" serif:id="Mouth" transform="matrix(1,0,0,1,46.7407,-12.9337)">
                            <path d="M85.903,150.785C90.185,150.785 95.1,149.94 95.1,151.321C95.1,152.703 90.185,155.791 85.903,155.791C81.621,155.791 77.327,152.516 77.327,151.135C77.327,149.753 81.621,150.785 85.903,150.785Z"/>
                        </g>
                        <g id="Brows7" serif:id="Brows">
                            <g id="EyeBrow_Left7" serif:id="EyeBrow_Left" transform="matrix(1,0,0,1,40.8652,-22.9197)">
                                <path d="M83.873,135.855C85.816,135.855 87.394,136.868 87.394,138.116C87.394,139.364 85.816,137.782 83.873,137.782C81.929,137.782 80.352,139.364 80.352,138.116C80.352,136.868 81.929,135.855 83.873,135.855Z"/>
                            </g>
                            <g id="EyeBrow_Right7" serif:id="EyeBrow_Right" transform="matrix(1,0,0,1,56.3141,-23.234)">
                                <path d="M83.873,135.855C85.816,135.855 87.394,136.868 87.394,138.116C87.394,139.364 85.816,137.782 83.873,137.782C81.929,137.782 80.352,139.364 80.352,138.116C80.352,136.868 81.929,135.855 83.873,135.855Z"/>
                            </g>
                        </g>
                        <g id="Hair7" serif:id="Hair" transform="matrix(1.17095,0,0,1,28.9385,-44.3937)">
                            <path d="M88.208,139.337C97.214,139.337 104.768,147.542 104.768,152.518C104.768,157.493 97.643,153.878 88.637,153.878C79.631,153.878 72.132,157.493 72.132,152.518C72.132,147.542 79.202,139.337 88.208,139.337Z"/>
                        </g>
                    </g>
                </g>
                <g id="Full_Torso7" serif:id="Full_Torso">
                    <g transform="matrix(0.917227,0.384823,-0.375936,0.896045,75.0274,-27.6428)">
                        <g id="Arm-Left14" serif:id="Arm Left">
                            <path d="M121.823,165.717C121.823,164.59 120.929,163.675 119.828,163.675L96.698,163.675C95.597,163.675 94.704,164.59 94.704,165.717L94.704,169.8C94.704,170.927 95.597,171.842 96.698,171.842L119.828,171.842C120.929,171.842 121.823,170.927 121.823,169.8L121.823,165.717Z" style="fill:rgb(0,7,238);"/>
                        </g>
                    </g>
                    <g transform="matrix(1,0,0,1,46.3933,-1.80415)">
                        <g id="Arm-Left15" serif:id="Arm Left">
                            <path d="M121.823,165.717C121.823,164.59 120.908,163.675 119.781,163.675L96.745,163.675C95.618,163.675 94.704,164.59 94.704,165.717L94.704,169.8C94.704,170.927 95.618,171.842 96.745,171.842L119.781,171.842C120.908,171.842 121.823,170.927 121.823,169.8L121.823,165.717Z" style="fill:rgb(0,7,238);"/>
                        </g>
                    </g>
                    <g transform="matrix(1,0,0,1,0.466248,-4.94512)">
                        <g id="Torso7" serif:id="Torso">
                            <path d="M145.181,172.108C145.181,168.482 142.238,165.539 138.612,165.539L125.474,165.539C121.848,165.539 118.904,168.482 118.904,172.108L118.904,190.461C118.904,194.086 121.848,197.03 125.474,197.03L138.612,197.03C142.238,197.03 145.181,194.086 145.181,190.461L145.181,172.108Z" style="fill:rgb(0,7,255);"/>
                        </g>
                    </g>
                </g>
            </g>
        </g>
        <g id="Frame3" transform="matrix(1,0,0,1,0,240)">
            <g transform="matrix(0.979233,0,0,1.01164,55.1229,-7.75977)">
                <rect x="46.598" y="26.821" width="82.756" height="118.619" style="fill:rgb(238,0,30);stroke:black;stroke-width:2.01px;"/>
            </g>
            <g id="Frame19" serif:id="Frame1" transform="matrix(1,0,0,1,8.43927,-65.9137)">
                <g id="Head_Neck8" serif:id="Head_Neck">
                    <g id="Neck8" serif:id="Neck" transform="matrix(1,0,0,1,0.170017,-3.23444)">
                        <rect x="127.625" y="149.11" width="9.429" height="21.094" style="fill:rgb(0,7,238);"/>
                    </g>
                    <g id="HeadGroup8" serif:id="HeadGroup">
                        <g id="Skull8" serif:id="Skull" transform="matrix(1,0,0,1,-0.0670881,0)">
                            <path d="M115.095,132.704L115.095,109.529L150.095,109.529L150.095,133.611L150.054,133.611C150.056,133.754 150.058,133.898 150.058,134.043C150.058,145.366 142.216,154.558 132.558,154.558C122.899,154.558 115.058,145.366 115.058,134.043C115.058,133.594 115.07,133.148 115.095,132.704Z" style="fill:rgb(0,7,255);"/>
                        </g>
                        <g id="Eyes8" serif:id="Eyes">
                            <g id="Eye-Sockets8" serif:id="Eye Sockets" transform="matrix(1,0,0,1,0.748091,0)">
                                <g transform="matrix(1,0,0,1,18.8921,-7.03579)">
                                    <ellipse cx="104.91" cy="130.278" rx="3.029" ry="4.036" style="fill:white;"/>
                                </g>
                                <g transform="matrix(1,0,0,1,34.9431,-7.16479)">
                                    <ellipse cx="104.91" cy="130.278" rx="3.029" ry="4.036" style="fill:white;"/>
                                </g>
                            </g>
                            <g id="Pupils8" serif:id="Pupils">
                                <g id="Iris_Left8" serif:id="Iris_Left" transform="matrix(1,0,0,1,32.4311,-9.8937)">
                                    <ellipse cx="92.779" cy="134.316" rx="1.799" ry="1.821"/>
                                </g>
                                <g id="Iris_Right8" serif:id="Iris_Right" transform="matrix(1,0,0,1,48.5348,-9.98011)">
                                    <ellipse cx="92.779" cy="134.316" rx="1.799" ry="1.821"/>
                                </g>
                            </g>
                        </g>
                        <g id="Lids8" serif:id="Lids" transform="matrix(1,0,0,1.47988,0,-55.7723)">
                            <g id="EyeLid_Right8" serif:id="EyeLid_Right" transform="matrix(1,0,0,1,58.8415,-38.6002)">
                                <path d="M81.6,155.06C83.622,155.06 85.265,156.842 85.265,159.037C85.265,161.232 83.622,159.905 81.6,159.905C79.577,159.905 77.935,161.232 77.935,159.037C77.935,156.842 79.577,155.06 81.6,155.06Z" style="fill:rgb(0,7,238);"/>
                            </g>
                            <g id="EyLid_Left8" serif:id="EyLid_Left" transform="matrix(1,0,0,1,42.976,-38.8385)">
                                <path d="M81.6,155.06C83.622,155.06 85.265,156.842 85.265,159.037C85.265,161.232 83.622,159.905 81.6,159.905C79.577,159.905 77.935,161.232 77.935,159.037C77.935,156.842 79.577,155.06 81.6,155.06Z" style="fill:rgb(0,7,238);"/>
                            </g>
                        </g>
                        <g id="Mouth8" serif:id="Mouth" transform="matrix(1,0,0,1,46.7407,-12.9337)">
                            <path d="M85.903,150.785C90.185,150.785 95.1,149.94 95.1,151.321C95.1,152.703 90.185,155.791 85.903,155.791C81.621,155.791 77.327,152.516 77.327,151.135C77.327,149.753 81.621,150.785 85.903,150.785Z"/>
                        </g>
                        <g id="Brows8" serif:id="Brows">
                            <g id="EyeBrow_Left8" serif:id="EyeBrow_Left" transform="matrix(1,0,0,1,40.8652,-22.9197)">
                                <path d="M83.873,135.855C85.816,135.855 87.394,136.868 87.394,138.116C87.394,139.364 85.816,137.782 83.873,137.782C81.929,137.782 80.352,139.364 80.352,138.116C80.352,136.868 81.929,135.855 83.873,135.855Z"/>
                            </g>
                            <g id="EyeBrow_Right8" serif:id="EyeBrow_Right" transform="matrix(1,0,0,1,56.3141,-23.234)">
                                <path d="M83.873,135.855C85.816,135.855 87.394,136.868 87.394,138.116C87.394,139.364 85.816,137.782 83.873,137.782C81.929,137.782 80.352,139.364 80.352,138.116C80.352,136.868 81.929,135.855 83.873,135.855Z"/>
                            </g>
                        </g>
                        <g id="Hair8" serif:id="Hair" transform="matrix(1.17095,0,0,1,28.9385,-44.3937)">
                            <path d="M88.208,139.337C97.214,139.337 104.768,147.542 104.768,152.518C104.768,157.493 97.643,153.878 88.637,153.878C79.631,153.878 72.132,157.493 72.132,152.518C72.132,147.542 79.202,139.337 88.208,139.337Z"/>
                        </g>
                    </g>
                </g>
                <g id="Full_Torso8" serif:id="Full_Torso">
                    <g transform="matrix(0.967225,0.25392,-0.25392,0.967225,49.024,-24.0549)">
                        <g id="Arm-Left16" serif:id="Arm Left">
                            <path d="M121.823,165.717C121.823,164.59 120.908,163.675 119.781,163.675L96.745,163.675C95.618,163.675 94.704,164.59 94.704,165.717L94.704,169.8C94.704,170.927 95.618,171.842 96.745,171.842L119.781,171.842C120.908,171.842 121.823,170.927 121.823,169.8L121.823,165.717Z" style="fill:rgb(0,7,238);"/>
                        </g>
                    </g>
                    <g transform="matrix(1,0,0,1,46.3933,-1.80415)">
                        <g id="Arm-Left17" serif:id="Arm Left">
                            <path d="M121.823,165.717C121.823,164.59 120.908,163.675 119.781,163.675L96.745,163.675C95.618,163.675 94.704,164.59 94.704,165.717L94.704,169.8C94.704,170.927 95.618,171.842 96.745,171.842L119.781,171.842C120.908,171.842 121.823,170.927 121.823,169.8L121.823,165.717Z" style="fill:rgb(0,7,238);"/>
                        </g>
                    </g>
                    <g transform="matrix(1,0,0,1,0.466248,-4.94512)">
                        <g id="Torso8" serif:id="Torso">
                            <path d="M145.181,172.108C145.181,168.482 142.238,165.539 138.612,165.539L125.474,165.539C121.848,165.539 118.904,168.482 118.904,172.108L118.904,190.461C118.904,194.086 121.848,197.03 125.474,197.03L138.612,197.03C142.238,197.03 145.181,194.086 145.181,190.461L145.181,172.108Z" style="fill:rgb(0,7,255);"/>
                        </g>
                    </g>
                </g>
            </g>
        </g>
        <g id="Frame2" transform="matrix(1,0,0,1,0,120)">
            <g transform="matrix(0.979233,0,0,1.01164,55.1229,-7.75977)">
                <rect x="46.598" y="26.821" width="82.756" height="118.619" style="fill:rgb(238,0,30);stroke:black;stroke-width:2.01px;"/>
            </g>
            <g id="Frame110" serif:id="Frame1" transform="matrix(1,0,0,1,8.43927,-65.9137)">
                <g id="Head_Neck9" serif:id="Head_Neck">
                    <g id="Neck9" serif:id="Neck" transform="matrix(1,0,0,1,0.170017,-3.23444)">
                        <rect x="127.625" y="149.11" width="9.429" height="21.094" style="fill:rgb(0,7,238);"/>
                    </g>
                    <g id="HeadGroup9" serif:id="HeadGroup">
                        <g id="Skull9" serif:id="Skull" transform="matrix(1,0,0,1,-0.0670881,0)">
                            <path d="M115.095,132.704L115.095,109.529L150.095,109.529L150.095,133.611L150.054,133.611C150.056,133.754 150.058,133.898 150.058,134.043C150.058,145.366 142.216,154.558 132.558,154.558C122.899,154.558 115.058,145.366 115.058,134.043C115.058,133.594 115.07,133.148 115.095,132.704Z" style="fill:rgb(0,7,255);"/>
                        </g>
                        <g id="Eyes9" serif:id="Eyes">
                            <g id="Eye-Sockets9" serif:id="Eye Sockets" transform="matrix(1,0,0,1,0.748091,0)">
                                <g transform="matrix(1,0,0,1,18.8921,-7.03579)">
                                    <ellipse cx="104.91" cy="130.278" rx="3.029" ry="4.036" style="fill:white;"/>
                                </g>
                                <g transform="matrix(1,0,0,1,34.9431,-7.16479)">
                                    <ellipse cx="104.91" cy="130.278" rx="3.029" ry="4.036" style="fill:white;"/>
                                </g>
                            </g>
                            <g id="Pupils9" serif:id="Pupils">
                                <g id="Iris_Left9" serif:id="Iris_Left" transform="matrix(1,0,0,1,32.4311,-9.8937)">
                                    <ellipse cx="92.779" cy="134.316" rx="1.799" ry="1.821"/>
                                </g>
                                <g id="Iris_Right9" serif:id="Iris_Right" transform="matrix(1,0,0,1,48.5348,-9.98011)">
                                    <ellipse cx="92.779" cy="134.316" rx="1.799" ry="1.821"/>
                                </g>
                            </g>
                        </g>
                        <g id="Lids9" serif:id="Lids" transform="matrix(1,0,0,1.23484,0,-27.2932)">
                            <g id="EyeLid_Right9" serif:id="EyeLid_Right" transform="matrix(1,0,0,1,58.8415,-38.6002)">
                                <path d="M81.6,155.06C83.622,155.06 85.265,156.842 85.265,159.037C85.265,161.232 83.622,159.905 81.6,159.905C79.577,159.905 77.935,161.232 77.935,159.037C77.935,156.842 79.577,155.06 81.6,155.06Z" style="fill:rgb(0,7,238);"/>
                            </g>
                            <g id="EyLid_Left9" serif:id="EyLid_Left" transform="matrix(1,0,0,1,42.976,-38.8385)">
                                <path d="M81.6,155.06C83.622,155.06 85.265,156.842 85.265,159.037C85.265,161.232 83.622,159.905 81.6,159.905C79.577,159.905 77.935,161.232 77.935,159.037C77.935,156.842 79.577,155.06 81.6,155.06Z" style="fill:rgb(0,7,238);"/>
                            </g>
                        </g>
                        <g id="Mouth9" serif:id="Mouth" transform="matrix(1,0,0,1,46.7407,-12.9337)">
                            <path d="M85.903,150.785C90.185,150.785 95.1,149.94 95.1,151.321C95.1,152.703 90.185,155.791 85.903,155.791C81.621,155.791 77.327,152.516 77.327,151.135C77.327,149.753 81.621,150.785 85.903,150.785Z"/>
                        </g>
                        <g id="Brows9" serif:id="Brows">
                            <g id="EyeBrow_Left9" serif:id="EyeBrow_Left" transform="matrix(1,0,0,1,40.8652,-22.9197)">
                                <path d="M83.873,135.855C85.816,135.855 87.394,136.868 87.394,138.116C87.394,139.364 85.816,137.782 83.873,137.782C81.929,137.782 80.352,139.364 80.352,138.116C80.352,136.868 81.929,135.855 83.873,135.855Z"/>
                            </g>
                            <g id="EyeBrow_Right9" serif:id="EyeBrow_Right" transform="matrix(1,0,0,1,56.3141,-23.234)">
                                <path d="M83.873,135.855C85.816,135.855 87.394,136.868 87.394,138.116C87.394,139.364 85.816,137.782 83.873,137.782C81.929,137.782 80.352,139.364 80.352,138.116C80.352,136.868 81.929,135.855 83.873,135.855Z"/>
                            </g>
                        </g>
                        <g id="Hair9" serif:id="Hair" transform="matrix(1.17095,0,0,1,28.9385,-44.3937)">
                            <path d="M88.208,139.337C97.214,139.337 104.768,147.542 104.768,152.518C104.768,157.493 97.643,153.878 88.637,153.878C79.631,153.878 72.132,157.493 72.132,152.518C72.132,147.542 79.202,139.337 88.208,139.337Z"/>
                        </g>
                    </g>
                </g>
                <g id="Full_Torso9" serif:id="Full_Torso">
                    <g transform="matrix(0.984203,0.177046,-0.177046,0.984203,34.2896,-18.0178)">
                        <g id="Arm-Left18" serif:id="Arm Left">
                            <path d="M121.823,165.717C121.823,164.59 120.908,163.675 119.781,163.675L96.745,163.675C95.618,163.675 94.704,164.59 94.704,165.717L94.704,169.8C94.704,170.927 95.618,171.842 96.745,171.842L119.781,171.842C120.908,171.842 121.823,170.927 121.823,169.8L121.823,165.717Z" style="fill:rgb(0,7,238);"/>
                        </g>
                    </g>
                    <g transform="matrix(1,0,0,1,46.3933,-1.80415)">
                        <g id="Arm-Left19" serif:id="Arm Left">
                            <path d="M121.823,165.717C121.823,164.59 120.908,163.675 119.781,163.675L96.745,163.675C95.618,163.675 94.704,164.59 94.704,165.717L94.704,169.8C94.704,170.927 95.618,171.842 96.745,171.842L119.781,171.842C120.908,171.842 121.823,170.927 121.823,169.8L121.823,165.717Z" style="fill:rgb(0,7,238);"/>
                        </g>
                    </g>
                    <g transform="matrix(1,0,0,1,0.466248,-4.94512)">
                        <g id="Torso9" serif:id="Torso">
                            <path d="M145.181,172.108C145.181,168.482 142.238,165.539 138.612,165.539L125.474,165.539C121.848,165.539 118.904,168.482 118.904,172.108L118.904,190.461C118.904,194.086 121.848,197.03 125.474,197.03L138.612,197.03C142.238,197.03 145.181,194.086 145.181,190.461L145.181,172.108Z" style="fill:rgb(0,7,255);"/>
                        </g>
                    </g>
                </g>
            </g>
        </g>
        <g id="Frame111" serif:id="Frame1">
            <g transform="matrix(0.979233,0,0,1.01164,55.1229,-7.75977)">
                <rect x="46.598" y="26.821" width="82.756" height="118.619" style="fill:rgb(238,0,30);stroke:black;stroke-width:2.01px;"/>
            </g>
            <g id="Frame112" serif:id="Frame1" transform="matrix(1,0,0,1,8.43927,-65.9137)">
                <g id="Head_Neck10" serif:id="Head_Neck">
                    <g id="Neck10" serif:id="Neck" transform="matrix(1,0,0,1,0.170017,-3.23444)">
                        <rect x="127.625" y="149.11" width="9.429" height="21.094" style="fill:rgb(0,7,238);"/>
                    </g>
                    <g id="HeadGroup10" serif:id="HeadGroup">
                        <g id="Skull10" serif:id="Skull" transform="matrix(1,0,0,1,-0.0670881,0)">
                            <path d="M115.095,132.704L115.095,109.529L150.095,109.529L150.095,133.611L150.054,133.611C150.056,133.754 150.058,133.898 150.058,134.043C150.058,145.366 142.216,154.558 132.558,154.558C122.899,154.558 115.058,145.366 115.058,134.043C115.058,133.594 115.07,133.148 115.095,132.704Z" style="fill:rgb(0,7,255);"/>
                        </g>
                        <g id="Eyes10" serif:id="Eyes">
                            <g id="Eye-Sockets10" serif:id="Eye Sockets" transform="matrix(1,0,0,1,0.748091,0)">
                                <g transform="matrix(1,0,0,1,18.8921,-7.03579)">
                                    <ellipse cx="104.91" cy="130.278" rx="3.029" ry="4.036" style="fill:white;"/>
                                </g>
                                <g transform="matrix(1,0,0,1,34.9431,-7.16479)">
                                    <ellipse cx="104.91" cy="130.278" rx="3.029" ry="4.036" style="fill:white;"/>
                                </g>
                            </g>
                            <g id="Pupils10" serif:id="Pupils">
                                <g id="Iris_Left10" serif:id="Iris_Left" transform="matrix(1,0,0,1,32.4311,-9.8937)">
                                    <ellipse cx="92.779" cy="134.316" rx="1.799" ry="1.821"/>
                                </g>
                                <g id="Iris_Right10" serif:id="Iris_Right" transform="matrix(1,0,0,1,48.5348,-9.98011)">
                                    <ellipse cx="92.779" cy="134.316" rx="1.799" ry="1.821"/>
                                </g>
                            </g>
                        </g>
                        <g id="Lids10" serif:id="Lids">
                            <g id="EyeLid_Right10" serif:id="EyeLid_Right" transform="matrix(1,0,0,1,58.8415,-38.6002)">
                                <path d="M81.6,155.06C83.622,155.06 85.265,156.842 85.265,159.037C85.265,161.232 83.622,159.905 81.6,159.905C79.577,159.905 77.935,161.232 77.935,159.037C77.935,156.842 79.577,155.06 81.6,155.06Z" style="fill:rgb(0,7,238);"/>
                            </g>
                            <g id="EyLid_Left10" serif:id="EyLid_Left" transform="matrix(1,0,0,1,42.976,-38.8385)">
                                <path d="M81.6,155.06C83.622,155.06 85.265,156.842 85.265,159.037C85.265,161.232 83.622,159.905 81.6,159.905C79.577,159.905 77.935,161.232 77.935,159.037C77.935,156.842 79.577,155.06 81.6,155.06Z" style="fill:rgb(0,7,238);"/>
                            </g>
                        </g>
                        <g id="Mouth10" serif:id="Mouth" transform="matrix(1,0,0,1,46.7407,-12.9337)">
                            <path d="M85.903,150.785C90.185,150.785 95.1,149.94 95.1,151.321C95.1,152.703 90.185,155.791 85.903,155.791C81.621,155.791 77.327,152.516 77.327,151.135C77.327,149.753 81.621,150.785 85.903,150.785Z"/>
                        </g>
                        <g id="Brows10" serif:id="Brows">
                            <g id="EyeBrow_Left10" serif:id="EyeBrow_Left" transform="matrix(1,0,0,1,40.8652,-22.9197)">
                                <path d="M83.873,135.855C85.816,135.855 87.394,136.868 87.394,138.116C87.394,139.364 85.816,137.782 83.873,137.782C81.929,137.782 80.352,139.364 80.352,138.116C80.352,136.868 81.929,135.855 83.873,135.855Z"/>
                            </g>
                            <g id="EyeBrow_Right10" serif:id="EyeBrow_Right" transform="matrix(1,0,0,1,56.3141,-23.234)">
                                <path d="M83.873,135.855C85.816,135.855 87.394,136.868 87.394,138.116C87.394,139.364 85.816,137.782 83.873,137.782C81.929,137.782 80.352,139.364 80.352,138.116C80.352,136.868 81.929,135.855 83.873,135.855Z"/>
                            </g>
                        </g>
                        <g id="Hair10" serif:id="Hair" transform="matrix(1.17095,0,0,1,28.9385,-44.3937)">
                            <path d="M88.208,139.337C97.214,139.337 104.768,147.542 104.768,152.518C104.768,157.493 97.643,153.878 88.637,153.878C79.631,153.878 72.132,157.493 72.132,152.518C72.132,147.542 79.202,139.337 88.208,139.337Z"/>
                        </g>
                    </g>
                </g>
                <g id="Full_Torso10" serif:id="Full_Torso">
                    <g transform="matrix(0.996343,0.0854454,-0.0854454,0.996343,17.6086,-10.1375)">
                        <g id="Arm-Left20" serif:id="Arm Left">
                            <path d="M121.823,165.717C121.823,164.59 120.908,163.675 119.781,163.675L96.745,163.675C95.618,163.675 94.704,164.59 94.704,165.717L94.704,169.8C94.704,170.927 95.618,171.842 96.745,171.842L119.781,171.842C120.908,171.842 121.823,170.927 121.823,169.8L121.823,165.717Z" style="fill:rgb(0,7,238);"/>
                        </g>
                    </g>
                    <g transform="matrix(1,0,0,1,46.3933,-1.80415)">
                        <g id="Arm-Left21" serif:id="Arm Left">
                            <path d="M121.823,165.717C121.823,164.59 120.908,163.675 119.781,163.675L96.745,163.675C95.618,163.675 94.704,164.59 94.704,165.717L94.704,169.8C94.704,170.927 95.618,171.842 96.745,171.842L119.781,171.842C120.908,171.842 121.823,170.927 121.823,169.8L121.823,165.717Z" style="fill:rgb(0,7,238);"/>
                        </g>
                    </g>
                    <g transform="matrix(1,0,0,1,0.466248,-4.94512)">
                        <g id="Torso10" serif:id="Torso">
                            <path d="M145.181,172.108C145.181,168.482 142.238,165.539 138.612,165.539L125.474,165.539C121.848,165.539 118.904,168.482 118.904,172.108L118.904,190.461C118.904,194.086 121.848,197.03 125.474,197.03L138.612,197.03C142.238,197.03 145.181,194.086 145.181,190.461L145.181,172.108Z" style="fill:rgb(0,7,255);"/>
                        </g>
                    </g>
                </g>
            </g>
        </g>
    </g>
</svg>
