<?xml version="1.0" encoding="UTF-8" standalone="no"?>
<!DOCTYPE svg PUBLIC "-//W3C//DTD SVG 1.1//EN" "http://www.w3.org/Graphics/SVG/1.1/DTD/svg11.dtd">
<svg width="100%" height="100%" viewBox="0 0 71 98" version="1.1" xmlns="http://www.w3.org/2000/svg" xmlns:xlink="http://www.w3.org/1999/xlink" xml:space="preserve" xmlns:serif="http://www.serif.com/" style="fill-rule:evenodd;clip-rule:evenodd;stroke-linejoin:round;stroke-miterlimit:2;">
    <g transform="matrix(1,0,0,1,-97.5821,-94.9435)">
        <g id="Body">
            <g id="Head_Neck">
                <g id="Neck" transform="matrix(1,0,0,1,0.170017,-3.23444)">
                    <rect x="127.625" y="149.11" width="9.429" height="21.094" style="fill:rgb(0,7,238);"/>
                </g>
                <g id="HeadGroup">
                    <g id="Skull" transform="matrix(1,0,0,1,-0.0670881,0)">
                        <path d="M115.095,132.704L115.095,109.529L150.095,109.529L150.095,133.611L150.054,133.611C150.056,133.754 150.058,133.898 150.058,134.043C150.058,145.366 142.216,154.558 132.558,154.558C122.899,154.558 115.058,145.366 115.058,134.043C115.058,133.594 115.07,133.148 115.095,132.704Z" style="fill:rgb(0,7,255);"/>
                    </g>
                    <g id="Eyes">
                        <g id="Eye-Sockets" serif:id="Eye Sockets" transform="matrix(1,0,0,1,0.748091,0)">
                            <g transform="matrix(1,0,0,1,18.8921,-7.03579)">
                                <ellipse cx="104.91" cy="130.278" rx="3.029" ry="4.036" style="fill:white;"/>
                            </g>
                            <g transform="matrix(1,0,0,1,34.9431,-7.16479)">
                                <ellipse cx="104.91" cy="130.278" rx="3.029" ry="4.036" style="fill:white;"/>
                            </g>
                        </g>
                        <g id="Pupils">
                            <g id="Iris_Left" transform="matrix(1,0,0,1,32.4311,-9.8937)">
                                <ellipse cx="92.779" cy="134.316" rx="1.799" ry="1.821"/>
                            </g>
                            <g id="Iris_Right" transform="matrix(1,0,0,1,48.5348,-9.98011)">
                                <ellipse cx="92.779" cy="134.316" rx="1.799" ry="1.821"/>
                            </g>
                        </g>
                    </g>
                    <g id="Lids">
                        <g id="EyeLid_Right" transform="matrix(1,0,0,1,58.8415,-38.6002)">
                            <path d="M81.6,155.06C83.622,155.06 85.265,156.842 85.265,159.037C85.265,161.232 83.622,159.905 81.6,159.905C79.577,159.905 77.935,161.232 77.935,159.037C77.935,156.842 79.577,155.06 81.6,155.06Z" style="fill:rgb(0,7,238);"/>
                        </g>
                        <g id="EyLid_Left" transform="matrix(1,0,0,1,42.976,-38.8385)">
                            <path d="M81.6,155.06C83.622,155.06 85.265,156.842 85.265,159.037C85.265,161.232 83.622,159.905 81.6,159.905C79.577,159.905 77.935,161.232 77.935,159.037C77.935,156.842 79.577,155.06 81.6,155.06Z" style="fill:rgb(0,7,238);"/>
                        </g>
                    </g>
                    <g id="Mouth" transform="matrix(1,0,0,1,46.7407,-12.9337)">
                        <path d="M85.903,150.785C90.185,150.785 95.1,149.94 95.1,151.321C95.1,152.703 90.185,155.791 85.903,155.791C81.621,155.791 77.327,152.516 77.327,151.135C77.327,149.753 81.621,150.785 85.903,150.785Z"/>
                    </g>
                    <g id="Brows">
                        <g id="EyeBrow_Left" transform="matrix(1,0,0,1,40.8652,-22.9197)">
                            <path d="M83.873,135.855C85.816,135.855 87.394,136.868 87.394,138.116C87.394,139.364 85.816,137.782 83.873,137.782C81.929,137.782 80.352,139.364 80.352,138.116C80.352,136.868 81.929,135.855 83.873,135.855Z"/>
                        </g>
                        <g id="EyeBrow_Right" transform="matrix(1,0,0,1,56.3141,-23.234)">
                            <path d="M83.873,135.855C85.816,135.855 87.394,136.868 87.394,138.116C87.394,139.364 85.816,137.782 83.873,137.782C81.929,137.782 80.352,139.364 80.352,138.116C80.352,136.868 81.929,135.855 83.873,135.855Z"/>
                        </g>
                    </g>
                    <g id="Hair" transform="matrix(1.17095,0,0,1,28.9385,-44.3937)">
                        <path d="M88.208,139.337C97.214,139.337 104.768,147.542 104.768,152.518C104.768,157.493 97.643,153.878 88.637,153.878C79.631,153.878 72.132,157.493 72.132,152.518C72.132,147.542 79.202,139.337 88.208,139.337Z"/>
                    </g>
                </g>
            </g>
            <g id="Full_Torso">
                <g transform="matrix(1,0,0,1,2.87842,-1.50043)">
                    <g id="Arm-Left" serif:id="Arm Left">
                        <path d="M121.823,165.717C121.823,164.59 120.908,163.675 119.781,163.675L96.745,163.675C95.618,163.675 94.704,164.59 94.704,165.717L94.704,169.8C94.704,170.927 95.618,171.842 96.745,171.842L119.781,171.842C120.908,171.842 121.823,170.927 121.823,169.8L121.823,165.717Z" style="fill:rgb(0,7,238);"/>
                    </g>
                </g>
                <g transform="matrix(1,0,0,1,46.3933,-1.80415)">
                    <g id="Arm-Left1" serif:id="Arm Left">
                        <path d="M121.823,165.717C121.823,164.59 120.908,163.675 119.781,163.675L96.745,163.675C95.618,163.675 94.704,164.59 94.704,165.717L94.704,169.8C94.704,170.927 95.618,171.842 96.745,171.842L119.781,171.842C120.908,171.842 121.823,170.927 121.823,169.8L121.823,165.717Z" style="fill:rgb(0,7,238);"/>
                    </g>
                </g>
                <g transform="matrix(1,0,0,1,0.466248,-4.94512)">
                    <g id="Torso">
                        <path d="M145.181,172.108C145.181,168.482 142.238,165.539 138.612,165.539L125.474,165.539C121.848,165.539 118.904,168.482 118.904,172.108L118.904,190.461C118.904,194.086 121.848,197.03 125.474,197.03L138.612,197.03C142.238,197.03 145.181,194.086 145.181,190.461L145.181,172.108Z" style="fill:rgb(0,7,255);"/>
                    </g>
                </g>
            </g>
        </g>
    </g>
</svg>
