<?xml version="1.0" encoding="UTF-8" standalone="no"?>
<!DOCTYPE svg PUBLIC "-//W3C//DTD SVG 1.1//EN" "http://www.w3.org/Graphics/SVG/1.1/DTD/svg11.dtd">
<svg width="100%" height="100%" viewBox="0 0 959 647" version="1.1" xmlns="http://www.w3.org/2000/svg" xmlns:xlink="http://www.w3.org/1999/xlink" xml:space="preserve" xmlns:serif="http://www.serif.com/" style="fill-rule:evenodd;clip-rule:evenodd;stroke-linecap:round;stroke-linejoin:round;stroke-miterlimit:1.5;">
    <g transform="matrix(1,0,0,1,-121.181,-301.957)">
        <g id="OwlBacking" transform="matrix(1.29184,0,0,1.29184,-201.779,-246.991)">
            <path d="M620.786,924.999L621.027,925C623.299,924.952 625.269,923.398 625.839,921.189C642.159,857.894 674.332,804.288 722.578,760.517C782.394,779.325 852.142,772.391 904.718,737.134C956.283,702.555 988.857,637.792 971.361,575.948C967.073,560.793 959.671,545.927 950.619,533.078C966.793,521.608 976.589,512.779 990.461,498.646C991.816,497.265 992.182,495.109 991.493,493.332C990.786,491.509 989.097,490.254 987.148,490.103C987.148,490.103 979.296,489.494 965.883,488.937C974.553,481.873 982.474,473.928 990.461,466.1C991.831,464.758 992.167,462.526 991.493,460.786C990.786,458.964 989.097,457.709 987.148,457.558C987.148,457.558 980.216,457.02 968.257,456.493C976.06,449.987 983.262,442.783 990.461,435.614C991.824,434.256 992.173,432.055 991.493,430.3C990.786,428.478 989.097,427.222 987.148,427.071C968.235,426.132 949.311,425.192 930.375,425.037C910.939,424.878 891.484,425.074 872.076,426.132C849.7,427.352 827.355,429.302 805.093,431.868C791.382,433.447 777.752,435.78 764.233,438.558C751.06,441.265 737.975,444.474 725.086,448.309C683.479,460.687 636.623,482.737 620.918,526.718C605.214,482.737 558.358,460.687 516.751,448.309C503.862,444.474 490.776,441.265 477.604,438.558C464.085,435.78 450.455,433.447 436.744,431.868C414.482,429.302 392.137,427.361 369.761,426.132C329.875,423.941 294.541,425.063 254.689,427.071C252.761,427.168 251.03,428.531 250.344,430.3C249.637,432.122 250.038,434.189 251.376,435.614C258.309,443.003 265.737,449.953 273.58,456.493C267.279,456.771 260.967,456.959 254.689,457.558C252.726,457.745 251.065,458.928 250.344,460.786C249.637,462.609 250.038,464.675 251.376,466.1C259.008,474.234 267.239,481.836 275.954,488.937C268.861,489.232 261.759,489.466 254.689,490.103C252.73,490.28 251.061,491.484 250.344,493.332C249.637,495.154 250.038,497.22 251.376,498.646C263.328,511.383 276.751,522.819 291.218,533.078C282.166,545.928 274.764,560.793 270.476,575.948C252.98,637.792 285.553,702.555 337.118,737.134C389.694,772.391 459.442,779.325 519.258,760.517L519.258,760.517C567.299,804.122 599.612,858.276 616.001,921.201L616.189,921.777C616.404,922.327 616.711,922.827 617.088,923.259L617.496,923.676L617.957,924.049L618.307,924.279L618.557,924.419C619.1,924.704 619.698,924.893 620.327,924.967L620.786,924.999Z" style="fill:rgb(105,186,201);"/>
        </g>
        <g id="Owl" transform="matrix(1,0,0,1,-21.2702,11.5636)">
            <path d="M621.485,863.436L621.726,863.436C623.998,863.389 625.969,861.834 626.538,859.625C642.859,796.33 675.032,742.725 723.278,698.953C743.812,705.41 766.061,708.946 789.293,708.946C893.283,708.946 977.293,638.092 977.293,551.433C977.293,522.289 967.839,494.966 951.319,471.514C965.785,461.256 979.208,449.82 991.16,437.082C992.498,435.657 992.899,433.591 992.193,431.768C991.486,429.946 989.796,428.69 987.847,428.54C987.847,428.54 979.995,427.931 966.582,427.373C975.298,420.272 983.529,412.67 991.16,404.537C992.498,403.112 992.899,401.045 992.193,399.223C991.486,397.4 989.796,396.145 987.847,395.994C987.847,395.994 980.916,395.457 968.956,394.929C976.799,388.39 984.227,381.439 991.16,374.05C992.498,372.625 992.899,370.559 992.193,368.736C991.486,366.914 989.796,365.659 987.847,365.508C987.847,365.508 897.14,358.484 805.792,370.304C750.962,377.399 695.954,391.364 659.74,417.371C641.862,430.209 628.475,445.951 621.618,465.155C614.761,445.951 601.374,430.209 583.497,417.371C547.282,391.364 492.274,377.399 437.444,370.304C346.096,358.484 255.389,365.508 255.389,365.508C253.44,365.659 251.75,366.914 251.044,368.736C250.337,370.559 250.738,372.625 252.076,374.05C259.009,381.439 266.437,388.39 274.279,394.929C262.32,395.457 255.389,395.994 255.389,395.994C253.44,396.145 251.75,397.4 251.044,399.223C250.337,401.045 250.738,403.112 252.076,404.537C259.707,412.67 267.939,420.272 276.654,427.373C263.241,427.931 255.389,428.54 255.389,428.54C253.44,428.69 251.75,429.946 251.044,431.768C250.337,433.591 250.738,435.657 252.076,437.082C264.028,449.82 277.451,461.256 291.917,471.514C275.397,494.966 265.943,522.289 265.943,551.433C265.943,638.092 349.953,708.946 453.943,708.946C477.175,708.946 499.424,705.41 519.958,698.953L519.958,698.953C567.999,742.559 600.312,796.713 616.701,859.637L616.888,860.213C617.104,860.764 617.411,861.263 617.788,861.695L618.195,862.112L618.657,862.485L619.006,862.715L619.256,862.855C619.799,863.141 620.398,863.33 621.027,863.403L621.485,863.436ZM693.468,614.143C710.002,623.286 730.339,628.68 752.319,628.68C807.628,628.68 852.533,594.528 852.533,552.464C852.533,510.399 807.628,476.248 752.319,476.248C697.009,476.248 652.104,510.399 652.104,552.464C652.104,570.572 660.427,587.215 674.32,600.298C662.567,616.734 636.988,652.579 626.378,667.449C625.248,668.968 623.461,669.856 621.568,669.837C619.675,669.819 617.905,668.897 616.804,667.357C606.14,652.445 580.618,616.716 568.901,600.312C582.802,587.23 591.132,570.581 591.132,552.464C591.132,510.399 546.227,476.248 490.917,476.248C435.608,476.248 390.703,510.399 390.703,552.464C390.703,594.528 435.608,628.68 490.917,628.68C512.897,628.68 533.234,623.286 549.768,614.143L616.825,705.828C617.943,707.357 619.724,708.261 621.618,708.261C623.512,708.261 625.293,707.357 626.411,705.828L693.468,614.143Z" style="stroke:black;stroke-width:1px;"/>
        </g>
    </g>
</svg>
